<?xml version="1.0" encoding="UTF-8"?>
<svg xmlns="http://www.w3.org/2000/svg" width="600mm" height="600mm" viewBox="0 0 600 600">
<rect width="600" height="600" fill="white"/>
<g fill="black" shape-rendering="crispEdges">
<rect x="40" y="40" width="65" height="65"/>
<rect x="105" y="40" width="65" height="65"/>
<rect x="170" y="40" width="65" height="65"/>
<rect x="235" y="40" width="65" height="65"/>
<rect x="300" y="40" width="65" height="65"/>
<rect x="365" y="40" width="65" height="65"/>
<rect x="430" y="40" width="65" height="65"/>
<rect x="495" y="40" width="65" height="65"/>
<rect x="40" y="105" width="65" height="65"/>
<rect x="170" y="105" width="65" height="65"/>
<rect x="235" y="105" width="65" height="65"/>
<rect x="430" y="105" width="65" height="65"/>
<rect x="495" y="105" width="65" height="65"/>
<rect x="40" y="170" width="65" height="65"/>
<rect x="170" y="170" width="65" height="65"/>
<rect x="235" y="170" width="65" height="65"/>
<rect x="365" y="170" width="65" height="65"/>
<rect x="495" y="170" width="65" height="65"/>
<rect x="40" y="235" width="65" height="65"/>
<rect x="105" y="235" width="65" height="65"/>
<rect x="170" y="235" width="65" height="65"/>
<rect x="495" y="235" width="65" height="65"/>
<rect x="40" y="300" width="65" height="65"/>
<rect x="105" y="300" width="65" height="65"/>
<rect x="300" y="300" width="65" height="65"/>
<rect x="365" y="300" width="65" height="65"/>
<rect x="495" y="300" width="65" height="65"/>
<rect x="40" y="365" width="65" height="65"/>
<rect x="235" y="365" width="65" height="65"/>
<rect x="300" y="365" width="65" height="65"/>
<rect x="495" y="365" width="65" height="65"/>
<rect x="40" y="430" width="65" height="65"/>
<rect x="235" y="430" width="65" height="65"/>
<rect x="300" y="430" width="65" height="65"/>
<rect x="495" y="430" width="65" height="65"/>
<rect x="40" y="495" width="65" height="65"/>
<rect x="105" y="495" width="65" height="65"/>
<rect x="170" y="495" width="65" height="65"/>
<rect x="235" y="495" width="65" height="65"/>
<rect x="300" y="495" width="65" height="65"/>
<rect x="365" y="495" width="65" height="65"/>
<rect x="430" y="495" width="65" height="65"/>
<rect x="495" y="495" width="65" height="65"/>
</g>
<g id="marker-center" aria-label="Marker geometric center at (300, 300) mm" fill="none">
  <title>Black marker bounds: (40, 40) to (560, 560). Center: (300, 300) mm.</title>
  <path d="M288 300H312 M300 288V312" stroke="white" stroke-width="4"/>
  <circle cx="300" cy="300" r="7" stroke="white" stroke-width="4"/>
  <path d="M288 300H312 M300 288V312" stroke="#e60026" stroke-width="2"/>
  <circle cx="300" cy="300" r="7" stroke="#e60026" stroke-width="2"/>
</g>
</svg>
